# xmcd
#
# Track frame offsets: 
#        150
#        16785
#        36384
#        53080
#        69490
#        88825
#        107472
#        121130
#        139630
#        154090
#        171265
#
# Disc length: 2519 seconds
#
# Revision: 5
# Processed by: cddbd v1.5.2PL0 Copyright (c) Steve Scherf et al.
# Submitted via: ExactAudioCopy v0.99pb4
#
DISCID=8809d50b
DTITLE=Elliott Yamin - Elliott Yamin
DYEAR=2007
DGENRE=R&B
TTITLE0=Movin' On
TTITLE1=Wait For You
TTITLE2=Find A Way
TTITLE3=One Word
TTITLE4=You Are The One
TTITLE5=I'm The Man
TTITLE6=Train Wreck
TTITLE7=Free
TTITLE8=Alright
TTITLE9=Take My Breath Away
TTITLE10=A Song For You
EXTD=
EXTT0=
EXTT1=
EXTT2=
EXTT3=
EXTT4=
EXTT5=
EXTT6=
EXTT7=
EXTT8=
EXTT9=
EXTT10=
PLAYORDER=
